<svg width="19" height="19" viewBox="0 0 19 19" fill="none" xmlns="http://www.w3.org/2000/svg">
<path fill-rule="evenodd" clip-rule="evenodd" d="M14.0443 11.3579C13.8107 11.2295 12.6607 10.6162 12.4451 10.5306C12.2294 10.445 12.0713 10.3986 11.906 10.6304C11.7407 10.8587 11.2627 11.3758 11.119 11.5291C10.9752 11.6824 10.8351 11.6967 10.6015 11.5683C10.3679 11.4399 9.60961 11.1618 8.73274 10.3238C8.04993 9.67117 7.60072 8.8795 7.47135 8.63701C7.34197 8.39452 7.47134 8.27327 7.59353 8.15916C7.70494 8.05574 7.8415 7.8917 7.96728 7.75976C8.08947 7.62782 8.13259 7.52797 8.21884 7.37462C8.30509 7.22128 8.26915 7.08221 8.21525 6.96096C8.16134 6.83972 7.7265 5.65935 7.54681 5.18149C7.36713 4.70008 7.16588 4.7714 7.02572 4.76783C6.88557 4.76426 6.72745 4.73574 6.56932 4.73217C6.4112 4.72504 6.14886 4.77496 5.92245 5.00319C5.69605 5.23142 5.05636 5.78059 5.01324 6.94313C4.97012 8.10567 5.7787 9.26107 5.8937 9.42155C6.00511 9.58559 7.4426 12.1032 9.82523 13.141C12.2115 14.1787 12.2222 13.8613 12.6607 13.8399C13.0991 13.8185 14.091 13.3193 14.3102 12.7772C14.5294 12.2316 14.5474 11.7609 14.4899 11.661C14.4324 11.5612 14.2779 11.4934 14.0443 11.3686V11.3579ZM9.6707 16.9602C8.09306 16.9602 6.62682 16.4895 5.39777 15.6871L2.41498 16.6357L3.38528 13.7757C2.45451 12.5062 1.90827 10.9443 1.90827 9.25751C1.90827 5.00676 5.39058 1.55124 9.6707 1.55124C13.9508 1.55124 17.4367 5.00676 17.4367 9.25751C17.4367 13.5083 13.9544 16.9638 9.6707 16.9638V16.9602ZM9.6707 0C4.5209 0 0.344997 4.14377 0.344997 9.25394C0.344997 11.0013 0.833743 12.6381 1.68545 14.0325L0 19L5.16418 17.3596C6.50104 18.0942 8.03556 18.5114 9.6707 18.5114C14.8241 18.5114 19 14.3677 19 9.25394C19 4.1402 14.8241 0 9.6707 0Z" fill="white"/>
</svg>
