<svg width="24" height="24" viewBox="0 0 24 24" fill="none" xmlns="http://www.w3.org/2000/svg">
<g clip-path="url(#clip0_259_4186)">
<g clip-path="url(#clip1_259_4186)">
<path d="M1.2002 7.67998V19.2C1.2002 20.3457 1.65534 21.4446 2.46549 22.2547C3.27565 23.0648 4.37446 23.52 5.5202 23.52H18.4802C19.626 23.52 20.7248 23.0648 21.5349 22.2547C22.3451 21.4446 22.8002 20.3457 22.8002 19.2V7.67998C22.7991 6.65983 22.4371 5.67296 21.7783 4.89414C21.1193 4.11532 20.2061 3.59481 19.2002 3.42478V0.47998H16.3202V3.35998H13.4402V0.47998H10.5602V3.35998H7.6802V0.47998H4.8002V3.42478C3.79431 3.59481 2.88105 4.11532 2.22215 4.89414C1.56325 5.67296 1.20123 6.65983 1.2002 7.67998ZM18.4802 20.64H5.5202C5.13829 20.64 4.77201 20.4883 4.50196 20.2183C4.23191 19.9482 4.0802 19.5819 4.0802 19.2V12H19.9202V19.2C19.9202 19.5819 19.7685 19.9482 19.4985 20.2183C19.2284 20.4883 18.8621 20.64 18.4802 20.64ZM5.5202 6.23998H18.4802C18.8621 6.23998 19.2284 6.3917 19.4985 6.66175C19.7685 6.9318 19.9202 7.29807 19.9202 7.67998V9.11998H4.0802V7.67998C4.0802 7.29807 4.23191 6.9318 4.50196 6.66175C4.77201 6.3917 5.13829 6.23998 5.5202 6.23998Z" fill="#B5B5B5"/>
<path d="M9.11975 14.16H6.23975V17.04H9.11975V14.16Z" fill="#B5B5B5"/>
</g>
</g>
<defs>
<clipPath id="clip0_259_4186">
<rect width="24" height="24" fill="white"/>
</clipPath>
<clipPath id="clip1_259_4186">
<rect width="23.04" height="24" fill="white" transform="translate(0.47998)"/>
</clipPath>
</defs>
</svg>
