<svg width="24" height="24" viewBox="0 0 24 24" fill="none" xmlns="http://www.w3.org/2000/svg">
<g clip-path="url(#clip0_259_4292)">
<g clip-path="url(#clip1_259_4292)">
<g clip-path="url(#clip2_259_4292)">
<path d="M1.19434 5.70715V14.0064C1.19434 16.282 2.46174 17.7331 3.14224 18.5143C3.85515 19.3569 4.66888 20.113 6.51957 21.2903C7.22528 21.7405 8.15782 22.2661 9.2812 22.8566C10.1093 23.2887 11.0491 23.5191 11.9996 23.5191C12.9502 23.5191 13.8864 23.2923 14.7108 22.8602C15.8414 22.2697 16.7704 21.7405 17.4761 21.294C19.3015 20.1382 20.1153 19.3821 20.9506 18.41C21.552 17.7114 22.805 16.2568 22.805 14.0028V5.69995C22.805 4.03288 21.7499 2.53505 20.1801 1.96976C18.6211 1.41167 15.4922 0.479126 12.0032 0.479126C8.51428 0.479126 5.37819 1.41527 3.82635 1.97336C2.2565 2.53505 1.20154 4.03648 1.20154 5.70355L1.19434 5.70715ZM13.4362 3.42799C15.899 3.62602 18.045 4.27412 19.2007 4.68818C19.6256 4.84301 19.9136 5.24987 19.9136 5.70715V14.01C19.9136 15.1946 19.2439 15.9723 18.6499 16.6636C18.081 17.3261 17.4545 17.8987 15.9242 18.8672C15.2869 19.2741 14.448 19.7494 13.4327 20.2786V3.42799H13.4362ZM4.07839 5.70715C4.07839 5.25347 4.36283 4.84301 4.78769 4.68818C5.94707 4.27412 8.08581 3.62242 10.5558 3.42438V20.275C9.54404 19.7422 8.70151 19.2669 8.06421 18.86C6.51957 17.8806 5.87866 17.2866 5.23777 16.534C4.74449 15.9723 4.07839 15.2018 4.07839 14.0028V5.70355V5.70715Z" fill="#B5B5B5"/>
</g>
</g>
</g>
<defs>
<clipPath id="clip0_259_4292">
<rect width="24" height="24" fill="white"/>
</clipPath>
<clipPath id="clip1_259_4292">
<rect width="24" height="24" fill="white"/>
</clipPath>
<clipPath id="clip2_259_4292">
<rect width="23.04" height="24" fill="white" transform="translate(0.47998)"/>
</clipPath>
</defs>
</svg>
