<svg width="24" height="24" viewBox="0 0 24 24" fill="none" xmlns="http://www.w3.org/2000/svg">
<g clip-path="url(#clip0_259_4240)">
<g clip-path="url(#clip1_259_4240)">
<g clip-path="url(#clip2_259_4240)">
<path d="M17.7602 9.11988V13.4398C17.7602 13.8218 17.6082 14.1882 17.3383 14.4581C17.0683 14.7283 16.702 14.88 16.32 14.88H14.8801V4.79998C14.8801 3.65415 14.4248 2.55551 13.6147 1.74538C12.8046 0.935059 11.7057 0.47998 10.5601 0.47998H4.79998C3.65415 0.47998 2.55551 0.935001 1.74539 1.74538C0.93506 2.55551 0.47998 3.65409 0.47998 4.79998V23.52H23.52V20.6399H14.88V17.7601H16.3199C17.4656 17.7601 18.5644 17.3048 19.3747 16.4947C20.1848 15.6846 20.6399 14.5857 20.6399 13.4399V9.11991C20.6399 8.73797 20.7918 8.37182 21.0617 8.10163C21.3317 7.83168 21.6981 7.68001 22.08 7.68001H23.5199V4.79994H22.08C20.9342 4.79994 19.8355 5.25496 19.0252 6.06535C18.215 6.87547 17.7602 7.97425 17.7602 9.11988ZM12 20.6399H3.36001V11.9999H12V20.6399ZM12 9.11988H9.11995V6.23982H6.23988V9.11988H3.36008V4.79995C3.36008 4.41801 3.51176 4.05185 3.7817 3.78166C4.0519 3.51172 4.41803 3.36004 4.79999 3.36004H10.5601C10.9418 3.36004 11.3082 3.51172 11.5782 3.78166C11.8483 4.05186 12 4.41799 12 4.79995V9.11988Z" fill="#B5B5B5"/>
</g>
</g>
</g>
<defs>
<clipPath id="clip0_259_4240">
<rect width="24" height="24" fill="white"/>
</clipPath>
<clipPath id="clip1_259_4240">
<rect width="24" height="24" fill="white"/>
</clipPath>
<clipPath id="clip2_259_4240">
<rect width="23.04" height="24" fill="white" transform="translate(0.47998)"/>
</clipPath>
</defs>
</svg>
