<svg width="24" height="24" viewBox="0 0 24 24" fill="none" xmlns="http://www.w3.org/2000/svg">
<g clip-path="url(#clip0_259_4155)">
<g clip-path="url(#clip1_259_4155)">
<g clip-path="url(#clip2_259_4155)">
<path d="M12.0439 5V5.00098C12.4785 5.00032 12.9079 5.09549 13.3008 5.28125C13.6445 5.44382 13.9529 5.67148 14.209 5.95117L14.3154 6.0752L14.3203 6.08008L16.8574 9.26562L23.0059 11.4756C23.2602 11.5669 23.4802 11.735 23.6357 11.9561C23.7912 12.1771 23.875 12.4407 23.875 12.7109V18.5C23.875 18.8481 23.7364 19.1816 23.4902 19.4277C23.2441 19.6739 22.9106 19.8125 22.5625 19.8125H21.1865C20.9461 20.4623 20.5313 21.0362 19.9805 21.4648C19.325 21.9749 18.5181 22.252 17.6875 22.252C16.8569 22.252 16.05 21.9749 15.3945 21.4648C14.8437 21.0362 14.4289 20.4623 14.1885 19.8125H9.81152C9.57114 20.4623 9.15634 21.0362 8.60547 21.4648C7.94997 21.9749 7.14306 22.252 6.3125 22.252C5.48194 22.252 4.67503 21.9749 4.01953 21.4648C3.46866 21.0362 3.05386 20.4623 2.81348 19.8125H1.4375C1.0894 19.8125 0.755908 19.6739 0.509766 19.4277C0.263625 19.1816 0.125 18.8481 0.125 18.5V12.0869L0.137695 11.7451C0.19746 10.9504 0.464543 10.1827 0.915039 9.52051L3.11914 6.28418C3.38852 5.88858 3.75077 5.56463 4.17383 5.34082C4.59691 5.11706 5.06826 5.00005 5.54688 5H12.0439ZM6.09277 17.3965C5.87463 17.4399 5.67388 17.5468 5.5166 17.7041C5.35932 17.8614 5.25242 18.0621 5.20898 18.2803C5.16558 18.4985 5.18829 18.7251 5.27344 18.9307C5.3586 19.1361 5.50256 19.312 5.6875 19.4355C5.87222 19.5589 6.08939 19.6238 6.31152 19.624C6.60995 19.6236 6.8964 19.5059 7.10742 19.2949C7.31827 19.0841 7.43686 18.7982 7.4375 18.5C7.4375 18.2775 7.37163 18.06 7.24805 17.875C7.12448 17.6901 6.94863 17.5461 6.74316 17.4609C6.5376 17.3758 6.311 17.3531 6.09277 17.3965ZM17.4678 17.3965C17.2496 17.4399 17.0489 17.5468 16.8916 17.7041C16.7343 17.8614 16.6274 18.0621 16.584 18.2803C16.5406 18.4985 16.5633 18.7251 16.6484 18.9307C16.7336 19.1361 16.8776 19.312 17.0625 19.4355C17.2472 19.5589 17.4644 19.6238 17.6865 19.624C17.985 19.6236 18.2714 19.5059 18.4824 19.2949C18.6933 19.0841 18.8119 18.7982 18.8125 18.5C18.8125 18.2775 18.7466 18.06 18.623 17.875C18.4995 17.6901 18.3236 17.5461 18.1182 17.4609C17.9126 17.3758 17.686 17.3531 17.4678 17.3965ZM5.54688 7.625C5.49616 7.62506 5.44622 7.63746 5.40137 7.66113C5.35641 7.68494 5.31769 7.71967 5.28906 7.76172L5.28809 7.7627L3.08594 10.9971C2.8672 11.3185 2.75002 11.6981 2.75 12.0869V17.1875H2.81348C3.05386 16.5377 3.46866 15.9638 4.01953 15.5352C4.67503 15.0251 5.48194 14.748 6.3125 14.748C7.14306 14.748 7.94997 15.0251 8.60547 15.5352C9.15634 15.9638 9.57114 16.5377 9.81152 17.1875H14.1885C14.4289 16.5377 14.8437 15.9638 15.3945 15.5352C16.05 15.0251 16.8569 14.748 17.6875 14.748C18.5181 14.748 19.325 15.0251 19.9805 15.5352C20.5313 15.9638 20.9461 16.5377 21.1865 17.1875H21.25V13.6338L15.6191 11.6104C15.3899 11.528 15.1879 11.3829 15.0361 11.1924L12.2822 7.73535C12.2531 7.70094 12.2167 7.67336 12.1758 7.6543C12.1346 7.63516 12.0894 7.62503 12.0439 7.625H5.54688Z" fill="#B5B5B5" stroke="#B5B5B5"/>
</g>
</g>
</g>
<defs>
<clipPath id="clip0_259_4155">
<rect width="24" height="24" fill="white"/>
</clipPath>
<clipPath id="clip1_259_4155">
<rect width="24" height="24" fill="white"/>
</clipPath>
<clipPath id="clip2_259_4155">
<rect width="24" height="23" fill="white" transform="translate(0 0.5)"/>
</clipPath>
</defs>
</svg>
