<svg width="24" height="24" viewBox="0 0 24 24" fill="none" xmlns="http://www.w3.org/2000/svg">
<g clip-path="url(#clip0_259_4171)">
<g clip-path="url(#clip1_259_4171)">
<g clip-path="url(#clip2_259_4171)">
<path d="M10.6987 5.6264L6.85746 1.78519C6.02279 0.946871 4.88746 0.47688 3.70418 0.480001H0.844792V3.45486H3.70418C4.09896 3.4546 4.47743 3.61101 4.75651 3.8901L7.29273 6.42971H3.81959C3.03054 6.42971 2.27395 6.74304 1.71598 7.30096C1.15801 7.85888 0.844727 8.61551 0.844727 9.40456V17.5853C0.844727 18.3743 1.15806 19.1309 1.71598 19.6888C2.2739 20.2465 3.03054 20.5601 3.81959 20.5601H6.9319C7.49994 21.7478 8.49699 22.6761 9.72209 23.1583C10.9471 23.6406 12.3094 23.6406 13.5348 23.1583C14.7598 22.6761 15.7569 21.7478 16.3249 20.5601H23.1557V17.5853H16.7746C16.5225 15.9309 15.4901 14.4987 14.0006 13.736C12.511 12.9734 10.7455 12.9734 9.25596 13.736C7.76637 14.4986 6.73422 15.9309 6.48189 17.5853H3.81959V9.40456H11.1297L17.0795 3.45484H23.1555V0.47998H15.8446L10.6987 5.6264ZM11.6283 16.0979C12.2202 16.0979 12.7877 16.3329 13.2061 16.7513C13.6246 17.1697 13.8595 17.7372 13.8595 18.3289C13.8595 18.9205 13.6246 19.4881 13.2061 19.9064C12.7877 20.3251 12.2202 20.5601 11.6283 20.5601C11.0367 20.5601 10.4691 20.3251 10.0507 19.9064C9.63233 19.4881 9.39734 18.9205 9.39734 18.3289C9.39734 17.7372 9.63234 17.1697 10.0507 16.7513C10.4691 16.3329 11.0367 16.0979 11.6283 16.0979Z" fill="#B5B5B5"/>
</g>
</g>
</g>
<defs>
<clipPath id="clip0_259_4171">
<rect width="24" height="24" fill="white"/>
</clipPath>
<clipPath id="clip1_259_4171">
<rect width="24" height="24" fill="white"/>
</clipPath>
<clipPath id="clip2_259_4171">
<rect width="23.04" height="24" fill="white" transform="translate(0.47998)"/>
</clipPath>
</defs>
</svg>
