<svg width="24" height="24" viewBox="0 0 24 24" fill="none" xmlns="http://www.w3.org/2000/svg">
<g clip-path="url(#clip0_259_4225)">
<g clip-path="url(#clip1_259_4225)">
<path d="M0 7.87488H3.0001V20.6251H0V7.87488Z" fill="#B5B5B5"/>
<path d="M21.0001 6.37474H18.7503V4.12458H23.2503V1.12476H11.2501V4.12486L15.7501 4.1246V6.37476H9.00004V10.1248H5.25V18.2477L9.87762 22.8751H20.9999C21.7955 22.8751 22.5585 22.5591 23.1213 21.9963C23.6839 21.4337 23.9999 20.6707 23.9999 19.8752V9.37512C23.9999 8.57938 23.6839 7.81638 23.1213 7.25368C22.5587 6.69096 21.7959 6.37474 21.0001 6.37474ZM21.0001 19.8749H11.1228L8.25036 17.0022V13.1248H12.0004V9.37478H21.0005L21.0001 19.8749Z" fill="#B5B5B5"/>
</g>
</g>
<defs>
<clipPath id="clip0_259_4225">
<rect width="24" height="24" fill="white"/>
</clipPath>
<clipPath id="clip1_259_4225">
<rect width="24" height="24" fill="white"/>
</clipPath>
</defs>
</svg>
