<svg width="24" height="24" viewBox="0 0 24 24" fill="none" xmlns="http://www.w3.org/2000/svg">
<g clip-path="url(#clip0_259_4273)">
<g clip-path="url(#clip1_259_4273)">
<g clip-path="url(#clip2_259_4273)">
<path d="M3.51367 20.4862C5.76401 22.7364 8.81589 24 11.998 24C15.1802 24 18.232 22.7364 20.4825 20.4862L18.3748 18.375C16.6861 20.0698 14.3923 21.0222 11.9999 21.0222C9.60753 21.0222 7.31375 20.0698 5.62499 18.375L3.51367 20.4862Z" fill="#B5B5B5"/>
<path d="M24 11.9999C24 12.8283 23.3284 13.4997 22.5 13.4997C21.6716 13.4997 21 12.8283 21 11.9999C21 11.1714 21.6716 10.5 22.5 10.5C23.3284 10.5 24 11.1714 24 11.9999Z" fill="#B5B5B5"/>
<path d="M3 11.9999C3 12.8283 2.32828 13.4997 1.49986 13.4997C0.671448 13.4997 0 12.8283 0 11.9999C0 11.1714 0.671448 10.5 1.49986 10.5C2.32828 10.5 3 11.1714 3 11.9999Z" fill="#B5B5B5"/>
<path d="M13.4997 1.49986C13.4997 2.32828 12.8283 3 11.9999 3C11.1715 3 10.5 2.32828 10.5 1.49986C10.5 0.671448 11.1715 0 11.9999 0C12.8283 0 13.4997 0.671448 13.4997 1.49986Z" fill="#B5B5B5"/>
<path d="M6.00021 4.49986C6.00021 5.32826 5.32877 5.99972 4.50035 5.99972C3.67195 5.99972 3.00049 5.32826 3.00049 4.49986C3.00049 3.67144 3.67195 3 4.50035 3C5.32877 3 6.00021 3.67144 6.00021 4.49986Z" fill="#B5B5B5"/>
<path d="M7.5 11.9998C7.50158 13.349 8.10844 14.626 9.15322 15.4796C10.1982 16.3331 11.571 16.6726 12.8933 16.405C14.2156 16.1371 15.3479 15.2902 15.9783 14.0974C16.6087 12.9046 16.671 11.4921 16.1476 10.2485C16.1214 10.1846 16.0913 10.1247 16.0612 10.0609L21.6224 4.49974L19.5 2.37732L13.9388 7.93848C12.5444 7.27276 10.9061 7.36902 9.5992 8.19326C8.29234 9.01752 7.49974 10.4546 7.5 11.9998ZM11.9999 10.4999C12.3978 10.4999 12.7792 10.6579 13.0606 10.9391C13.3418 11.2206 13.4998 11.6019 13.4998 11.9998C13.4998 12.3977 13.3418 12.7791 13.0606 13.0605C12.7792 13.3417 12.3978 13.4997 11.9999 13.4997C11.6021 13.4997 11.2207 13.3417 10.9392 13.0605C10.658 12.7791 10.5 12.3977 10.5 11.9998C10.5 11.6019 10.658 11.2206 10.9392 10.9391C11.2207 10.6579 11.6021 10.4999 11.9999 10.4999Z" fill="#B5B5B5"/>
</g>
</g>
</g>
<defs>
<clipPath id="clip0_259_4273">
<rect width="24" height="24" fill="white"/>
</clipPath>
<clipPath id="clip1_259_4273">
<rect width="24" height="24" fill="white"/>
</clipPath>
<clipPath id="clip2_259_4273">
<rect width="24" height="24" fill="white"/>
</clipPath>
</defs>
</svg>
