<svg width="24" height="24" viewBox="0 0 24 24" fill="none" xmlns="http://www.w3.org/2000/svg">
<g clip-path="url(#clip0_259_4211)">
<g clip-path="url(#clip1_259_4211)">
<g clip-path="url(#clip2_259_4211)">
<path d="M20.64 0.47998H18.48C17.7162 0.47998 16.9836 0.783408 16.4435 1.32351C15.9034 1.86362 15.6 2.59616 15.6 3.35998V4.07998H8.39998V3.35998C8.39998 2.59616 8.09655 1.86362 7.55645 1.32351C7.01634 0.783408 6.2838 0.47998 5.51998 0.47998H3.35998C2.59616 0.47998 1.86362 0.783408 1.32351 1.32351C0.783408 1.86362 0.47998 2.59616 0.47998 3.35998V6.95998C0.47998 7.7238 0.783408 8.45634 1.32351 8.99645C1.86362 9.53655 2.59616 9.83998 3.35998 9.83998H5.51998C6.2838 9.83998 7.01634 9.53655 7.55645 8.99645C8.09655 8.45634 8.39998 7.7238 8.39998 6.95998H10.56V17.04H8.39998C8.39998 16.2762 8.09655 15.5436 7.55645 15.0035C7.01634 14.4634 6.2838 14.16 5.51998 14.16H3.35998C2.59616 14.16 1.86362 14.4634 1.32351 15.0035C0.783408 15.5436 0.47998 16.2762 0.47998 17.04V20.64C0.47998 21.4038 0.783408 22.1363 1.32351 22.6764C1.86362 23.2165 2.59616 23.52 3.35998 23.52H5.51998C6.2838 23.52 7.01634 23.2165 7.55645 22.6764C8.09655 22.1363 8.39998 21.4038 8.39998 20.64V19.92H15.6V20.64C15.6 21.4038 15.9034 22.1363 16.4435 22.6764C16.9836 23.2165 17.7162 23.52 18.48 23.52H20.64C21.4038 23.52 22.1363 23.2165 22.6764 22.6764C23.2165 22.1363 23.52 21.4038 23.52 20.64V17.04C23.52 16.2762 23.2165 15.5436 22.6764 15.0035C22.1363 14.4634 21.4038 14.16 20.64 14.16H18.48C17.7162 14.16 16.9836 14.4634 16.4435 15.0035C15.9034 15.5436 15.6 16.2762 15.6 17.04H13.44V6.95998H15.6C15.6 7.7238 15.9034 8.45634 16.4435 8.99645C16.9836 9.53655 17.7162 9.83998 18.48 9.83998H20.64C21.4038 9.83998 22.1363 9.53655 22.6764 8.99645C23.2165 8.45634 23.52 7.7238 23.52 6.95998V3.35998C23.52 2.59616 23.2165 1.86362 22.6764 1.32351C22.1363 0.783408 21.4038 0.47998 20.64 0.47998ZM3.35998 6.95998V3.35998H5.51998V6.95998H3.35998ZM3.35998 20.64V17.04H5.51998V20.64H3.35998ZM18.48 17.04H20.64V20.64H18.48V17.04ZM18.48 6.95998V3.35998H20.64V6.95998H18.48Z" fill="#B5B5B5"/>
</g>
</g>
</g>
<defs>
<clipPath id="clip0_259_4211">
<rect width="24" height="24" fill="white"/>
</clipPath>
<clipPath id="clip1_259_4211">
<rect width="24" height="24" fill="white"/>
</clipPath>
<clipPath id="clip2_259_4211">
<rect width="23.04" height="24" fill="white" transform="translate(0.47998)"/>
</clipPath>
</defs>
</svg>
