<svg width="232" height="309" viewBox="0 0 232 309" fill="none" xmlns="http://www.w3.org/2000/svg">
<g clip-path="url(#clip0_116_268)">
<path d="M232 111.24C232 178.337 185.069 223.363 116 223.363C47.8168 223.363 0 178.337 0 111.24C0 44.1429 46.9313 0 116.885 0C185.954 0 232 45.0257 232 111.24ZM53.1298 112.123C53.1298 151.851 78.8092 179.22 116 179.22C153.191 179.22 177.985 151.851 177.985 113.006C177.985 74.16 152.305 46.7914 116 46.7914C79.6947 45.9086 53.1298 72.3943 53.1298 112.123Z" fill="white"/>
<path d="M231.114 251.614H1.771V309H231.114V251.614Z" fill="#F2BA00"/>
</g>
<defs>
<clipPath id="clip0_116_268">
<rect width="232" height="309" fill="white"/>
</clipPath>
</defs>
</svg>
